<svg width="110" height="20" viewBox="0 0 110 20" fill="none" xmlns="http://www.w3.org/2000/svg">
<path d="M103.135 8.56014C103.089 8.48638 102.917 8.18264 102.84 8.05291C102.945 8.18834 103.299 8.82634 103.135 8.56014ZM95.1665 13.6951C95.2245 13.5835 95.2825 13.472 95.3405 13.3605C95.2703 13.4699 95.193 13.594 95.1142 13.721L94.2454 15.1273L93.04 13.9163C92.8573 13.732 92.6673 13.5414 92.5241 13.3886C92.4872 13.3492 92.6055 13.4299 92.5166 13.3383C92.4276 13.2466 92.4179 13.2899 92.2843 13.1606C92.1344 13.0157 91.4836 12.3178 91.2519 12.0822C90.3844 11.2018 89.4989 10.3239 88.6507 9.42164C89.56 10.321 88.6859 9.37452 88.4286 9.12503C88.3717 9.06966 88.3267 9.13023 87.4524 8.19155C87.0752 7.78586 87.2297 7.87361 87.0606 7.6744C86.9809 7.58041 86.8293 7.42254 86.5162 7.11877C87.1854 7.92598 86.4789 7.17841 85.9113 6.58675C85.8134 6.48479 85.0336 5.65101 84.6834 5.28816C84.5636 5.16404 84.3546 5.00015 84.196 4.83514C84.0869 4.72156 84.0199 4.62086 83.8578 4.45225C83.3885 3.96359 82.9249 3.47903 82.4617 2.99106L84.0898 3.30856C83.7158 3.47583 83.3407 3.64251 82.9624 3.80918C83.5045 3.45872 82.4882 3.97609 82.4395 3.99271C82.1912 4.07494 83.2618 3.58656 82.8304 3.76182C82.2382 4.03071 81.646 4.29948 81.0537 4.56811C81.5458 4.36087 80.4426 4.9319 80.221 4.99602C80.3482 5.03357 77.4846 6.13831 77.0704 6.35472C76.9842 6.39983 77.5823 6.179 76.2272 6.76313C76.0804 6.82634 76.1251 6.77822 76.0495 6.81459C76.0043 6.83639 75.7605 7.03475 75.4464 7.12551C75.3317 7.15867 76.0001 6.80159 74.4928 7.4981C75.1308 7.30433 72.4085 8.47682 71.902 8.67989C72.006 8.64561 72.1101 8.61134 72.2141 8.57708C71.7095 8.76931 71.6321 8.83436 71.5206 8.88238C71.0711 9.07592 70.4451 9.32408 70.0297 9.51184C69.5436 9.73152 69.5628 9.77842 68.9865 10.0133C69.1259 9.96346 69.2653 9.91366 69.4047 9.86387C69.0112 10.036 68.6177 10.2081 68.2242 10.3802C69.1055 9.91508 68.0268 10.4645 67.9546 10.4981C67.8395 10.5519 67.9951 10.4529 67.8024 10.5423C67.7825 10.5518 67.8221 10.5623 67.524 10.6979C66.9012 10.9813 66.9868 10.908 66.7244 11.025C66.7004 11.0359 66.7941 11.0195 66.3429 11.2259C64.9087 11.8819 66.3428 11.2067 66.3968 11.1792C66.4677 11.1431 65.9341 11.2752 67.1721 10.7618C66.7567 10.9347 66.6978 10.9143 66.6511 10.9339C66.6098 10.9514 65.9002 11.2737 65.8616 11.2925C65.5174 11.4613 65.8374 11.3507 65.7713 11.3858C65.7172 11.4144 64.8438 11.7616 64.6783 11.93C64.2349 12.0395 64.8847 11.7588 65.5679 11.4414C65.6616 11.3817 64.8991 11.7033 64.8594 11.7211C63.8844 12.1549 64.4512 11.9747 64.2553 12.1077C64.1523 12.1775 63.7366 12.3131 64.1276 12.2039C63.2449 12.6025 63.7678 12.3332 63.7085 12.3539C63.6192 12.3855 63.3164 12.5384 63.2767 12.5536C63.2184 12.5758 63.4079 12.4694 63.1806 12.5626C63.1429 12.5782 62.7956 12.7705 63.2687 12.5788C62.6438 12.8507 62.7073 12.855 62.4715 12.8942C62.0889 13.1877 62.1327 12.9715 61.9612 13.0408C61.5052 13.2251 61.6719 13.2479 61.6499 13.2624C61.4978 13.3601 60.2417 13.8842 59.9389 14.0323C60.0344 13.9208 60.9245 13.5943 61.1128 13.4974C61.7402 13.174 60.1915 13.8715 60.6267 13.5911C60.4396 13.6982 60.2524 13.8053 60.0651 13.9123C59.6844 14.0254 60.1856 13.7785 59.2253 14.2254C59.085 14.3357 59.9068 13.9152 59.752 14.0218C59.6607 14.0846 59.1011 14.3377 59.0945 14.3523C59.0887 14.369 59.5898 14.13 59.518 14.1835C59.361 14.3 57.4935 15.0837 58.8928 14.4376C58.5001 14.6126 58.2629 14.6253 57.933 14.8005C57.7197 14.9137 59.0075 14.4707 57.1386 15.2755C57.0826 15.2569 57.8774 14.9352 57.8965 14.9234C57.9232 14.9067 57.7446 14.8876 57.7182 14.8944C57.6256 14.9197 55.7461 15.806 55.3264 15.9433C55.5063 15.9195 53.895 16.5882 53.7277 16.6793C53.6833 16.7037 53.8688 16.6555 53.8208 16.6804C53.5205 16.8349 52.6639 17.1539 52.2766 17.3242C51.843 17.5146 51.9088 17.5145 51.8846 17.5252C51.6935 17.6083 51.8383 17.5244 51.7218 17.576C51.546 17.6541 50.3356 18.1865 50.2764 18.2168C50.2591 18.2257 50.4689 18.1658 50.2076 18.2877C50.1624 18.3088 50.1767 18.2635 49.4025 18.6233C48.47 19.0564 50.0734 18.3745 49.6981 18.5814C49.0724 18.8004 49.1136 18.8395 48.9481 18.9082C48.9126 18.9229 48.7294 18.9849 48.4863 19.0789L47.7956 19.3963L47.2118 18.8828C47.099 18.7704 46.9661 18.6424 46.8244 18.5157C46.9586 18.6324 47.0929 18.749 47.2271 18.8657L47.7995 19.3693L48.4769 19.058C48.6417 18.9811 48.8065 18.9041 48.9713 18.8271C48.839 18.8823 48.6577 18.9622 48.471 19.0451L47.802 19.3526L47.2365 18.8551C47.0141 18.6542 46.7811 18.4452 46.6561 18.3251C46.5535 18.2266 46.6645 18.2781 46.4349 18.0718C46.386 18.0281 46.1345 17.9194 46.7606 18.4325C46.7875 18.4994 46.5158 18.2259 46.3775 18.1127C46.3565 18.0957 46.2426 18.0634 46.0953 17.886C46.0601 17.8433 46.6039 18.1291 45.3904 17.1804C45.3513 17.1498 45.4662 17.2795 45.4277 17.25C45.4014 17.2298 45.1156 16.9608 45.0816 16.9337C45.0468 16.9061 45.1735 17.0487 45.1317 17.0164C44.9171 16.8504 44.7083 16.5507 45.118 16.9298C44.9865 16.7971 44.8549 16.6644 44.7233 16.5317C44.8302 16.7118 44.4945 16.3481 44.3018 16.1764C43.0671 15.0758 43.8619 15.8486 43.6373 15.6732C43.2762 15.3909 43.605 15.5472 43.0806 15.115C43.0321 15.075 43.611 15.659 42.4395 14.5647C42.616 14.7222 42.7925 14.8796 42.9691 15.0371C42.9072 14.9016 42.3331 14.4669 42.2917 14.4305C41.8198 14.0141 42.1492 14.2839 41.4364 13.6791C41.3727 13.6251 41.2475 13.4924 41.1104 13.378C40.5424 12.9034 41.8221 14.0465 41.8411 14.0957C41.8498 14.1193 40.4842 12.8781 40.4409 12.8315C40.2576 12.6329 41.068 13.3852 40.9318 13.2213C40.8819 13.1617 38.9177 11.4126 38.5342 11.0499C38.0917 10.6312 37.9395 10.3901 37.8792 10.4518C37.8081 10.2733 37.6571 10.2146 37.5998 10.1619C36.9068 9.52423 36.906 9.52248 36.3019 8.98667C36.1685 8.86833 36.0737 8.74845 36.0241 8.70933C35.9952 8.68664 36.028 8.75285 35.8891 8.63841C35.6964 8.47927 34.6018 7.45143 34.5288 7.36564C34.4559 7.2798 35.0032 7.78609 34.9203 7.67831C34.6135 7.39829 34.313 7.13082 34.0079 6.85545C33.9166 6.77313 33.825 6.69008 33.7327 6.60578C33.5661 6.45358 33.6633 6.51877 33.5912 6.45313C33.5783 6.44133 33.4663 6.3435 33.3426 6.23628L34.9618 5.72195C34.9145 5.9413 34.8623 6.18831 34.8702 6.17055C34.8788 6.15133 34.9241 5.97027 34.9836 5.72699L33.3277 6.25301C33.5276 6.43637 33.7835 6.66946 33.9981 6.86633C34.3275 7.16847 34.5594 7.38552 34.3421 7.20674C34.2627 7.14142 34.0422 6.90585 33.9853 6.88068C33.9745 6.8759 33.9696 6.8787 33.9727 6.89169C33.7496 6.68784 33.5266 6.48392 33.3036 6.27995L35.0188 5.73511C34.5818 7.52997 34.1421 9.3242 33.7006 11.118C33.9571 9.90983 34.311 8.56521 34.6086 7.30642C34.6494 7.13389 34.7929 6.55195 34.7529 6.61749C34.4921 7.68613 34.1854 9.01874 33.924 10.0423C33.9156 10.0751 33.9244 9.9498 33.8917 10.0722C33.8306 10.301 33.6827 11.0576 33.644 11.1817C33.637 11.2028 33.7132 10.7703 33.6653 10.8961C33.5426 11.2191 33.617 11.3255 33.5469 11.6113C33.5279 11.6889 33.4658 11.9208 33.3907 12.2055L33.1208 13.4384L32.0209 12.7785C31.5657 12.4784 30.9532 12.078 30.7341 11.9621C30.3752 11.7724 31.6785 12.5781 31.5694 12.5394C30.6789 12.0085 29.8053 11.4252 28.9753 10.9048C28.9607 10.8957 29.0773 10.9921 28.8911 10.8776C28.5671 10.6783 28.497 10.6019 28.3427 10.4993C28.1763 10.3888 27.5775 10.0148 27.5028 9.95606C27.4932 9.94855 27.628 10.0024 27.6468 10.0134C27.9126 10.1683 27.9869 10.256 28.0103 10.2713C28.0985 10.3286 28.1928 10.3725 28.2735 10.4244C28.4063 10.5098 28.4734 10.5668 28.6491 10.679C28.7703 10.7565 28.6654 10.6621 28.782 10.737C28.8248 10.7645 29.2603 11.1041 29.3329 11.0838C29.352 11.0783 26.6502 9.35255 25.5814 8.68028L26.2571 8.75625C26.0378 8.82848 25.8804 8.88115 25.8151 8.90461C25.9637 8.85877 26.1123 8.81295 26.2608 8.76713L25.5753 8.69006C25.7673 8.81587 25.9592 8.9417 26.1511 9.06754C25.9636 8.94373 25.7627 8.81706 25.5709 8.69725L26.2635 8.77512C25.7315 8.952 25.2679 9.1119 25.2089 9.08536C22.4525 9.98037 19.6954 10.8733 16.9384 11.7664C16.4449 11.9223 16.704 11.8029 15.8977 12.076C16.1102 12.0178 16.3228 11.9596 16.5354 11.9016C16.1181 12.0294 14.2751 12.615 13.9797 12.7182C13.9414 12.7315 13.8972 12.776 13.4384 12.9276C13.0314 13.0621 12.9591 13.0635 12.7399 13.1307C12.5559 13.1872 12.3522 13.2593 12.2975 13.2758C12.2555 13.2886 12.235 13.282 12.134 13.3126C11.8154 13.4094 12.0832 13.359 11.756 13.4233C11.832 13.3969 11.908 13.3705 11.984 13.3441C11.6002 13.4631 11.0727 13.6167 11.6322 13.4242C11.7284 13.3911 11.6493 13.4296 11.7214 13.406C14.545 12.4804 12.282 13.1954 11.2984 13.5371C11.0385 13.6036 9.6176 14.0802 9.56916 14.0925C9.50179 14.1095 9.74115 14.0167 9.41795 14.1105C9.34997 14.1302 7.449 14.7643 8.12758 14.5185C8.26759 14.4678 9.18182 14.1721 9.40169 14.0992C8.87262 14.236 7.67533 14.6829 7.53832 14.7261C6.98618 14.9022 8.58619 14.35 7.34496 14.7546C6.3906 15.0659 7.29293 14.7923 6.92929 14.9221C6.72485 14.9947 5.63801 15.327 5.67728 15.3467C5.30789 15.4715 5.51945 15.3849 5.47335 15.3988C5.42832 15.4126 4.70298 15.6608 4.46454 15.7326C4.43561 15.7413 4.52085 15.6968 4.49081 15.7053C4.43245 15.7223 3.73126 15.9568 3.70346 15.9673C3.68579 15.974 3.85752 15.9316 3.78974 15.9573C3.71074 15.9872 3.03393 16.2068 2.99791 16.2227C2.94709 16.2453 3.78019 15.9672 3.64596 16.0271C3.26014 16.15 2.6367 16.3654 2.38653 16.4598C2.44769 16.4362 2.82048 16.3132 2.95032 16.2718C2.8963 16.3122 2.09524 16.5745 2.36368 16.4688C2.19256 16.5345 2.31288 16.5 2.21759 16.5401C2.19257 16.5506 1.9454 16.6321 1.8989 16.6511C1.89292 16.6538 2.15067 16.5777 2.10094 16.5985C2.01088 16.636 1.26038 16.8798 1.19839 16.8981C1.0239 16.9494 1.63309 16.7427 1.68126 16.7176C1.68804 16.7139 1.16267 16.8685 1.15434 16.8697C1.11879 16.8645 1.70094 16.6853 1.6301 16.6932C1.48608 16.7374 1.34206 16.7816 1.19806 16.8258C1.74497 16.6301 2.76802 16.3011 3.02557 16.1979C2.20939 16.4724 1.35326 16.754 1.34299 16.7179C1.33848 16.7028 1.68811 16.577 1.67315 16.5777C1.61649 16.5812 1.13207 16.7586 1.11381 16.7638C1.09865 16.7679 1.09158 16.7694 1.09131 16.7686C1.09131 16.7686 1.09131 16.7686 1.09131 16.7686C1.09131 16.7686 1.09131 16.7686 1.09131 16.7686C1.09131 16.7686 1.09131 16.7686 1.09131 16.7686C1.08865 16.7607 1.78436 16.5231 1.81801 16.5078C1.87446 16.4816 1.55484 16.558 1.55332 16.552C1.56373 16.5472 2.05817 16.3751 1.88705 16.4205C1.71393 16.4666 1.27929 16.6118 1.26369 16.6158C1.1786 16.6374 1.93675 16.3772 1.95814 16.3659C1.96944 16.3599 1.55736 16.4852 1.54437 16.4859C1.53309 16.486 1.84076 16.3747 1.95935 16.323C2.04778 16.2845 1.78046 16.3677 1.82668 16.3508C1.85974 16.3388 2.5776 16.0974 2.61242 16.0841C2.66426 16.0643 2.49289 16.1114 2.51656 16.1008C2.5501 16.0856 2.78303 16.011 2.75167 16.0176C2.72802 16.0224 1.81859 16.2929 1.82153 16.2826C1.82681 16.2644 2.78933 15.9762 1.88464 16.2177C1.87833 16.2194 1.66438 16.2967 1.65827 16.2983C1.52179 16.3329 2.20643 16.0818 1.36343 16.3717C2.92703 15.819 1.55126 16.2831 1.77515 16.1793C1.8616 16.1392 2.4685 15.9272 2.47084 15.9248C2.40754 15.9327 2.21701 16.0086 2.14908 16.0251C2.11171 16.0342 2.65141 15.8348 2.52608 15.8683C2.46128 15.8857 1.88431 16.0854 1.86018 16.0927C1.62897 16.1632 1.90633 16.0586 1.85422 16.0702C1.8196 16.0779 1.4711 16.1974 1.46179 16.1999C1.44666 16.2036 1.91456 16.0257 2.01126 15.9863C2.08474 15.9564 1.80144 16.0469 1.85309 16.0271C2.16427 15.9077 2.84344 15.7041 2.18487 15.8882C2.14466 15.8995 1.90088 15.9848 1.89354 15.9868C1.73901 16.0281 2.1881 15.8717 2.26544 15.8349C2.39818 15.7716 1.75532 16.0041 2.28868 15.807C1.88238 15.9367 1.6581 16.0151 1.18762 16.1814C2.49037 15.7212 2.93686 15.5196 1.4888 16.0255C1.9498 15.8657 1.89106 15.861 2.02834 15.8127C2.11371 15.7826 2.78936 15.572 2.46587 15.6282C2.42529 15.6353 2.02239 15.7853 2.14506 15.728C3.11963 15.3903 2.1629 15.7125 2.16135 15.7112C2.16389 15.6772 4.55016 14.8664 4.95758 14.7195C5.43028 14.5487 5.84278 14.3747 5.94576 14.3383C6.28472 14.2188 6.0079 14.3311 6.08534 14.3092C6.16387 14.2871 7.11907 13.922 7.16763 13.9062C7.35626 13.8461 7.17224 13.929 7.19193 13.923C7.4265 13.8515 8.71679 13.3829 9.08049 13.259C9.06555 13.2519 8.33771 13.5078 8.78603 13.3301C9.30794 13.1228 9.35467 13.1605 9.36925 13.1578C11.793 12.3034 14.2164 11.4481 16.6399 10.5933C16.5993 10.5734 15.0227 11.1554 14.9853 11.1641C14.7659 11.2161 17.4421 10.2705 17.7742 10.1658C17.5225 10.2471 17.2708 10.3285 17.0192 10.41C17.4329 10.2238 18.3911 9.9371 19.0016 9.70353C19.1988 9.62791 18.8119 9.74881 18.8195 9.74507C19.0382 9.65162 19.4007 9.53568 19.139 9.64987C19.6786 9.43833 19.6058 9.48695 20.0253 9.34052C20.0469 9.33294 19.8619 9.38141 20.1912 9.25786C20.3455 9.19996 21.1737 8.90697 21.28 8.85412C21.3236 8.83212 20.8832 8.92116 20.8489 8.99104C19.9397 9.28532 20.569 9.1163 20.2186 9.23902C20.1649 9.25774 20.2787 9.18569 19.4021 9.51123C19.5527 9.40129 20.5801 9.07903 20.752 9.01134C21.1062 8.87098 19.6195 9.3697 19.3617 9.50528C19.475 9.42101 19.2551 9.53724 18.9251 9.65254C18.5639 9.77882 18.7171 9.71149 18.522 9.78075C17.9883 9.97013 18.2187 9.91844 17.7705 10.0505C18.225 9.9733 17.0206 10.3273 16.6699 10.431C17.229 10.228 17.788 10.0248 18.347 9.82164C18.3136 9.82905 18.2802 9.83647 18.2468 9.8439C18.3946 9.79192 18.5423 9.73995 18.6901 9.68798C18.6677 9.70024 18.6454 9.7125 18.6231 9.72475C19.3755 9.42887 19.5708 9.39109 19.633 9.36943C20.433 9.08873 21.3558 8.76069 22.1637 8.47401C22.2849 8.43106 22.1925 8.43361 23.0831 8.14113C23.3672 8.04792 23.1083 8.16345 23.4267 8.04706C23.8066 7.84757 23.8148 7.89633 23.9336 7.85436C24.2746 7.73355 24.478 7.64516 24.5095 7.63382C24.849 7.51139 25.3172 7.34683 25.7282 7.2006L26.1179 7.07448L26.4425 7.28091C26.5318 7.33413 26.6182 7.38551 26.6995 7.43362C26.7076 7.43813 26.4986 7.29042 26.7692 7.45896C26.8645 7.51789 27.6819 8.10586 28.4493 8.53412C28.2565 8.4117 28.0636 8.28936 27.8707 8.16708C28.0969 8.31194 29.722 9.26115 29.3397 9.00461C29.1051 8.84763 28.4854 8.54106 28.4485 8.45688C28.9776 8.79175 31.9561 10.5497 32.1798 10.6998C32.2107 10.7206 32.0048 10.6181 32.0477 10.6466C32.0809 10.6686 32.762 11.0731 32.8484 11.1334C32.8998 11.1692 32.594 10.9984 32.615 11.0187C32.6231 11.0259 32.7838 11.1257 32.969 11.2378L31.628 11.7988C31.6904 11.5187 31.7597 11.1908 31.7537 11.1564C31.7228 11.3274 31.6348 11.7155 31.6083 11.7942L32.9796 11.2207C32.9643 11.209 32.9636 11.2058 32.9834 11.2145L31.6013 11.7926C31.6027 11.777 31.6066 11.7491 31.6136 11.7066C31.6211 11.6611 31.687 11.4313 31.6961 11.376C31.7411 11.1013 31.6682 11.4079 31.5829 11.7884L32.9933 11.1984C32.7038 11.0228 32.3645 10.8205 32.2689 10.7629C32.4884 10.886 32.7361 11.031 32.9996 11.1882L31.5712 11.7857C31.7576 10.9234 31.9984 9.90547 32.1654 9.08415C32.2833 8.64308 32.0485 9.75142 32.1761 9.25102C32.4412 8.21307 32.2111 8.96664 32.2159 8.9336C32.2537 8.66933 32.5554 7.80906 32.4754 7.79012C32.5718 7.41389 32.5546 7.53891 32.6632 7.00162C32.642 7.07069 32.6207 7.13976 32.5995 7.20884C32.6845 6.60412 33.084 5.37493 33.0724 5.47126C33.0399 5.73007 32.8555 6.37567 32.844 6.43178C32.827 6.51488 32.8575 6.76237 32.5823 7.65094C32.554 8.03425 32.9401 6.22453 32.7937 7.05474C32.8549 6.76635 33.0322 6.01638 33.1963 5.31453L33.5204 3.95314L34.5494 4.88472C34.795 5.10531 35.0332 5.31858 35.2271 5.4899C35.4263 5.66596 35.5788 5.79767 35.6445 5.84748C35.6768 5.87161 35.5748 5.70487 35.9884 6.10924C36.1848 6.30127 35.6885 5.86382 35.7739 5.9567C36.0365 6.24252 39.9904 9.70199 40.74 10.3608C40.7885 10.4036 40.7584 10.4017 40.8062 10.4437C40.953 10.5728 41.5056 11.0238 41.7621 11.2619C41.2418 10.7561 42.2991 11.6861 42.565 11.926C42.9686 12.2902 42.9212 12.2928 43.0925 12.4536C43.7525 13.0735 44.8571 13.9423 45.334 14.464C45.355 14.3826 46.221 15.2968 46.648 15.6756C46.9826 15.9722 47.5022 16.3643 47.0703 15.9419C47.5825 16.3985 48.1281 16.866 48.6264 17.2984L47.6135 17.1425C47.6881 17.1077 47.7619 17.0733 47.8347 17.0394C47.9432 16.9889 47.8027 17.0781 47.9876 16.9914C48.0043 16.9833 48.0184 16.9524 48.1769 16.8774C49.4853 16.2577 48.8643 16.594 49.1164 16.4942C49.2575 16.4384 49.3608 16.3955 49.436 16.3626C48.7447 16.6827 47.9587 17.05 47.6386 17.1982L48.5857 17.344C48.5572 17.319 48.5332 17.298 48.5142 17.2813C48.5265 17.2982 48.5483 17.3223 48.5782 17.3524L47.6433 17.2085C48.0363 17.06 49.2902 16.4353 49.6939 16.2642C49.7093 16.2577 49.6676 16.3069 49.6831 16.3C49.6834 16.2999 49.6838 16.2997 49.6841 16.2996C49.8495 16.2264 50.8933 15.7388 50.664 15.8073C50.6025 15.8258 50.1202 16.0461 49.5494 16.3101C49.7017 16.2338 49.5735 16.2586 49.6003 16.2449C49.9253 16.0797 50.7492 15.7362 51.0388 15.6084C51.105 15.5792 51.0921 15.5632 51.1029 15.5583C51.3666 15.4427 51.2825 15.5436 51.527 15.3675C52.0303 15.2154 50.6427 15.783 50.7575 15.7809C50.8457 15.7792 53.8657 14.3805 53.8334 14.333C53.8463 14.3337 53.891 14.3215 53.9799 14.2903C54.1771 14.2212 55.0174 13.8313 55.1585 13.7553C55.1822 13.7422 55.1497 13.6963 55.1799 13.682C55.2554 13.646 56.3032 13.2154 56.6744 13.0099C56.4635 13.0976 56.2525 13.1854 56.0416 13.2731C57.2958 12.6998 57.0951 12.7732 56.6704 12.9489C56.6494 12.9583 56.6282 12.9657 56.6081 12.9746C56.2792 13.1114 55.8591 13.2904 55.851 13.2893C55.8204 13.2849 57.9443 12.3036 57.5564 12.5381C57.5023 12.5706 56.5082 12.9994 57.0109 12.8104C57.0988 12.7773 57.7269 12.4788 57.7617 12.4674C57.9952 12.3908 56.629 13.054 56.8136 13.012C57.1337 12.8257 57.5718 12.6469 57.9524 12.4629C58.1256 12.3792 58.157 12.3339 58.1783 12.3236C58.4978 12.1697 58.329 12.2792 58.4364 12.2294C58.4939 12.2026 59.1036 11.8551 59.0192 11.9892C61.0871 10.9755 59.5721 11.6664 58.2896 12.2573C58.6825 12.0432 59.4846 11.6938 59.8386 11.5242C59.9657 11.4632 59.8777 11.4713 60.0918 11.3672C60.5322 11.1527 62.6728 10.2127 63.2303 9.96747C62.8943 10.1322 63.0071 10.1162 63.2689 9.99444C63.5307 9.87262 63.2923 9.93393 63.3416 9.90634C63.3945 9.87687 64.6354 9.33347 64.8382 9.23491C63.9167 9.67227 64.1393 9.60621 64.9284 9.25046C64.8183 9.31085 64.7083 9.37123 64.5983 9.43161C65.0545 9.20928 66.0456 8.81252 66.3065 8.67757C66.3474 8.65634 66.1857 8.69982 66.2087 8.6879C66.438 8.57065 67.246 8.23362 67.2792 8.2082C67.3074 8.18676 66.9582 8.3204 67.0796 8.25264C67.105 8.23846 67.4478 8.12328 67.7667 7.9681C67.885 7.91055 67.8022 7.91955 67.8317 7.90446C68.0778 7.7786 67.9476 7.8862 68.404 7.67073C68.7383 7.51284 68.9712 7.35941 69.4421 7.16081C67.8927 7.80561 69.1856 7.24232 69.8172 6.93647C69.9184 6.88747 69.8111 6.88381 70.432 6.62675C69.1665 7.2977 70.8217 6.49963 71.1641 6.34494C71.183 6.33667 71.2024 6.3626 71.3704 6.28677C71.3846 6.28029 71.3554 6.27006 71.5107 6.19766C72.9831 5.51111 72.0475 5.96316 72.3371 5.85472C72.4604 5.80857 73.1671 5.45403 73.3605 5.36534C73.405 5.34503 73.3937 5.37473 73.5657 5.29564C73.8699 5.15568 74.1333 5.00984 74.3338 4.91669C74.3572 4.90592 74.3727 4.93776 74.7495 4.75405C74.8555 4.70241 74.9707 4.63625 74.8142 4.69613C74.2952 4.89505 73.3607 5.38319 72.7761 5.61235C72.243 5.82143 73.8835 5.07247 73.9688 5.03354C74.0001 5.0192 73.6867 5.18092 74.0139 5.03606C74.2933 4.91232 74.7766 4.6255 75.1967 4.4493C75.2287 4.43583 75.5813 4.33281 75.5673 4.34252C75.5543 4.35083 75.0502 4.59214 75.1303 4.5723C75.1398 4.56985 75.463 4.42274 75.5098 4.4138C75.5671 4.40276 75.7615 4.46165 75.832 4.43341C76.0126 4.36062 75.8847 4.38505 76.0002 4.335C76.2479 4.22758 77.117 3.8773 77.1256 3.82226C76.9836 3.88359 76.8416 3.94493 76.6995 4.00627C77.4814 3.6466 77.1391 3.77997 77.2466 3.72166C77.3623 3.65883 77.3455 3.71143 77.6113 3.5952C77.6691 3.5699 78.7711 3.06119 78.7439 3.05458C78.1438 3.35659 78.3496 3.20762 78.3211 3.21957C78.2126 3.2651 78.0875 3.35304 77.9436 3.41764C76.931 3.8717 77.9319 3.36877 77.6885 3.4664C77.6048 3.5001 77.4511 3.5964 77.4158 3.61107C77.3009 3.65875 77.286 3.63063 77.2115 3.66723C77.0377 3.7526 77.2619 3.70024 77.2489 3.7087C77.103 3.80572 76.4714 4.05375 76.8355 3.83498C76.5977 3.92356 76.595 3.9899 76.4024 4.05124C76.0195 4.17342 76.5692 3.93726 76.7135 3.8632C77.2314 3.59735 77.3978 3.54686 78.1441 3.1999C78.4129 3.07501 78.7207 2.90366 78.8453 2.84544C78.9238 2.8087 79.7102 2.56318 79.6672 2.4092C79.963 2.29185 80.4602 2.18107 80.7566 2.04165C81.0227 1.91639 80.9145 1.90388 80.9386 1.89058C80.9755 1.87013 81.3013 1.72747 81.4076 1.67064C81.5321 1.60398 81.4593 1.61348 81.6594 1.51329C82.1574 1.26402 82.1677 1.3223 82.2213 1.3021C82.844 1.06761 82.5456 1.11314 82.6771 1.04643C82.7064 1.03164 82.8291 0.976855 83.004 0.899505L83.7856 0.548861L84.3732 1.16652C84.7912 1.61057 85.6016 2.47861 85.8258 2.69034C85.7037 2.57931 85.5816 2.46829 85.4595 2.35726C85.6372 2.59492 85.8954 2.78026 85.8526 2.82863C85.9691 2.80015 86.3391 3.2876 86.4673 3.4178C86.5178 3.46907 86.5267 3.45276 86.5896 3.51737C86.835 3.76965 87.3731 4.35313 87.5115 4.48497C88.1098 5.05523 86.6979 3.48437 86.5857 3.36164C86.8148 3.60284 88.1321 4.94771 87.5705 4.28763C87.4837 4.18561 87.2863 4.04641 87.2331 3.99336C86.8731 3.63408 87.1796 3.89435 87.1549 3.8628C87.1127 3.80939 86.8523 3.59532 86.7948 3.52818C86.7755 3.50582 86.9339 3.61688 86.5994 3.26588C86.7907 3.41294 87.7109 4.41876 87.8406 4.54216C87.8868 4.58611 87.6676 4.24334 88.4183 5.13928C88.4142 5.12449 88.4101 5.10969 88.406 5.09489C88.6227 5.31976 88.8395 5.54465 89.0561 5.76957C89.2901 6.01238 89.5237 6.25546 89.757 6.49882C89.6963 6.45918 89.4208 6.2181 89.7423 6.54605C89.9274 6.73492 89.8196 6.56736 89.837 6.58411C90.0113 6.74577 92.8789 9.81439 93.431 10.4126C93.6203 10.6146 94.1646 11.1619 94.2047 11.205C94.3455 11.3552 94.688 11.7361 94.9818 12.0628L92.8605 12.2627C93.0374 12.0062 93.1935 11.78 93.2501 11.6937C93.3352 11.5639 93.228 11.6703 93.3071 11.5563C93.3807 11.4504 93.329 11.576 93.3515 11.545C93.5364 11.287 94.8677 9.27954 95.2156 8.82336C95.0093 9.10627 94.0675 10.5746 94.1045 10.5568C94.111 10.552 94.3673 10.2128 94.4082 10.1351C94.5091 10.0283 94.7301 9.58045 94.8948 9.36561C94.9134 9.3413 94.8782 9.46166 95.1567 9.06829C95.2525 8.9327 95.4739 8.55855 95.7502 8.21659C96.0946 7.68561 98.0368 4.97884 98.1403 4.77387C98.1427 4.76735 97.8624 5.14412 98.0325 4.8771C98.259 4.52236 98.0958 4.86697 98.3829 4.46846C98.401 4.44332 98.5485 4.23212 98.7157 3.99254L99.5616 2.80116L100.277 3.98184C100.49 4.32683 100.738 4.72878 100.753 4.74982C100.995 5.08505 100.389 4.05621 100.401 4.0683C100.431 4.09799 100.949 4.94386 100.967 4.97985C100.985 5.01386 100.53 4.34617 101.047 5.16886C100.993 5.07062 100.94 4.97236 100.887 4.87407C101.132 5.25994 101.129 5.31406 101.185 5.40985C101.358 5.70758 101.586 6.00322 101.825 6.50561C101.889 6.6383 101.751 6.43929 101.759 6.45613C101.834 6.61638 101.99 6.78079 102.096 7.02674C102.104 7.04514 101.769 6.53204 102.323 7.44988C102.287 7.38484 102.252 7.31978 102.217 7.2547C102.301 7.37973 102.863 8.30843 102.936 8.4349C103.151 8.80376 102.942 8.4965 103.164 8.86294C103.048 8.61014 103.717 9.72937 103.659 9.67784C103.776 9.81811 104.322 10.7841 104.586 11.2328C104.753 11.5159 105.1 12.0888 105.151 12.1797C105.214 12.2903 105.183 12.2649 105.297 12.4647C105.329 12.5214 105.682 13.1065 105.975 13.6315C106.032 13.7333 106.14 13.9539 106.027 13.7703C105.831 13.4564 105.488 12.8452 105.482 12.86C105.476 12.8767 105.965 13.6821 106.093 13.9015C106.684 14.9128 106.331 14.3365 106.343 14.3646C106.377 14.4361 106.706 14.9846 106.719 15.0079C106.774 15.1042 106.536 14.7185 106.529 14.7153C106.519 14.7117 106.831 15.244 106.757 15.1251C106.65 14.9553 106.363 14.4667 106.344 14.4361C106.095 14.0403 106.417 14.5957 106.505 14.7493C106.531 14.7959 106.416 14.6163 106.439 14.6544C106.788 15.2355 106.529 14.7657 106.764 15.151C106.972 15.4947 106.696 15.0577 106.703 15.0712C106.713 15.0884 106.965 15.4981 107.003 15.5634C107.022 15.5948 106.35 14.5418 106.37 14.5914C106.583 14.9281 106.796 15.2652 107.008 15.6027C107.018 15.6334 106.719 15.1443 106.687 15.0944C106.622 14.9943 106.795 15.2788 106.785 15.2681C106.78 15.2624 106.566 14.9359 106.752 15.2355C106.817 15.3383 106.957 15.5506 107.189 15.9267C106.36 14.6323 106.926 15.535 106.949 15.574C106.971 15.6126 106.568 14.9994 107.052 15.7477C107.061 15.7878 107.037 15.734 106.898 15.5228C106.726 15.2645 107.112 15.8685 106.498 14.916C106.526 14.975 107.025 15.7372 107.05 15.7779C107.073 15.813 106.959 15.6454 106.998 15.7064C107.457 16.4267 107.139 15.9335 107.27 16.1438C107.281 16.1626 107.726 16.8359 107.385 16.3248C106.763 15.3945 106.514 14.9976 106.387 14.8565C106.841 15.5492 107.412 16.3738 107.551 16.5838C107.766 16.9037 107.542 16.5735 107.567 16.6134C107.576 16.6272 107.762 16.9026 107.764 16.9064C107.89 17.107 106.937 15.6813 106.635 15.2339C106.714 15.3555 106.793 15.4768 106.872 15.598C106.762 15.4355 106.651 15.273 106.541 15.1105C107.061 15.8878 106.559 15.1384 106.413 14.9552C106.381 14.9141 106.733 15.4172 106.328 14.845C106.619 15.2724 106.523 15.138 106.792 15.5214C106.781 15.5141 106.176 14.6517 105.936 14.3128C106.767 15.5226 106.308 14.8225 107.021 15.8716C107.16 16.0619 106.815 15.5644 106.844 15.6044C106.947 15.7484 107.18 16.0923 107.471 16.5003C107.518 16.567 107.328 16.2792 107.615 16.7016C107.647 16.7484 107.828 17.0188 107.825 17.0151C107.799 16.9805 107.618 16.7145 107.609 16.7041C107.602 16.6944 107.806 16.9902 107.806 16.9914C107.81 17.0018 107.635 16.745 107.66 16.7826C107.713 16.8648 108.448 17.9282 107.485 16.5425C108.288 17.6917 107.59 16.6879 107.278 16.2402C107.199 16.126 107.176 16.0986 107.062 15.9363C106.915 15.7277 106.746 15.4817 106.67 15.3737C106.588 15.2577 107.043 15.924 106.377 14.9659C106.709 15.4578 107.318 16.3123 107.65 16.7919C108.325 17.7563 107.17 16.126 107.048 15.9572C107.016 15.9122 107.12 16.0659 107.099 16.0359C107.063 15.9871 106.408 15.0614 106.34 14.9729C106.271 14.8847 106.58 15.3112 106.597 15.3422C106.609 15.3629 105.807 14.254 106.236 14.8575C106.533 15.2726 107.09 16.0319 107.174 16.1657C106.735 15.5572 106.295 14.9485 105.856 14.3397C106.09 14.6771 106.326 15.0134 106.564 15.3485C106.066 14.6682 105.646 14.0733 105.168 13.4311C106.278 15.0007 104.782 12.938 104.763 12.9173C104.755 12.9113 105.184 13.5348 105.253 13.6345C104.849 13.0986 103.634 11.4606 104.316 12.4382C104.193 12.2601 103.865 11.8492 103.868 11.8558C103.895 11.9179 104.587 12.8293 104.465 12.6866C104.323 12.5216 104.158 12.2681 103.958 12.0023C102.932 10.6378 103.134 11.0654 102.118 9.68852C102.135 9.71783 102.153 9.74712 102.17 9.77639C101.058 8.28549 99.9571 6.78658 98.8679 5.28015C98.8139 5.21478 98.7504 5.13615 98.6795 5.047L100.328 5.03571C99.9196 5.80076 99.1204 7.19977 98.6855 7.91856C98.5869 8.08267 98.0813 8.87421 98.0404 8.93212C97.965 9.03965 98.334 8.41888 98.1515 8.68921C98.1138 8.7468 97.2806 10.1017 97.3646 10.0206C97.46 9.87004 97.7359 9.3844 97.7889 9.31C98.1663 8.79057 95.5849 12.9591 95.4694 13.1737C95.5353 13.087 95.6012 13.0003 95.6669 12.9135C95.5005 13.1742 95.3337 13.4348 95.1665 13.6951ZM102.451 7.50863C102.563 7.65727 102.788 8.06642 102.932 8.30044C103.133 8.6232 103.516 9.14368 103.319 8.94149C103.031 8.46289 102.742 7.98528 102.451 7.50863ZM96.334 7.23018C96.5611 6.93158 96.4473 7.2035 96.2507 7.44147C96.2289 7.46788 96.0268 7.63418 96.334 7.23018ZM98.6144 4.03507C98.6059 4.0483 98.4176 4.31151 98.4104 4.32027C98.2239 4.54488 98.7922 3.75183 98.6144 4.03507ZM88.8275 5.6204C89.1145 5.91624 88.9584 5.65263 88.7609 5.48694C88.7484 5.47653 88.8087 5.6009 88.8275 5.6204ZM89.0286 5.8337C89.2049 6.1079 89.74 6.48837 89.3775 6.12588C89.3423 6.09072 89.0206 5.82087 89.0286 5.8337ZM97.1186 6.14982C97.1101 6.19445 96.8813 6.50598 96.7831 6.63868C96.7711 6.62553 97.0276 6.28338 97.1186 6.14982ZM93.3606 10.3794C93.3367 10.3796 94.2484 11.3633 94.3268 11.4147C94.1765 11.2656 93.383 10.3793 93.3606 10.3794ZM90.9931 7.88482C91.0141 7.91172 91.3352 8.24572 91.3376 8.22467C91.1983 8.04508 90.8986 7.76341 90.9931 7.88482ZM86.2792 2.93449C86.2588 2.91918 86.423 3.24206 85.9045 2.60046C85.8284 2.50629 86.1461 2.79894 86.1192 2.76537C86.0624 2.69541 86.0158 2.64176 85.9768 2.60012C86.2477 2.8708 86.5256 3.15544 86.5476 3.18762C86.6508 3.33889 86.2881 2.94135 86.2792 2.93449ZM82.0671 1.23916C82.0022 1.28718 81.5395 1.48672 81.4322 1.52766C81.4137 1.53459 81.4736 1.4585 81.2683 1.55516C81.1035 1.63283 81.3701 1.5622 81.0439 1.70194C80.7143 1.84322 81.1373 1.61586 81.1078 1.62666C81.0683 1.64121 80.5716 1.88881 80.5764 1.85751C80.58 1.83428 81.1267 1.60113 81.2588 1.53669C81.4279 1.45415 81.2067 1.5184 81.496 1.39505C81.6778 1.31753 81.6017 1.41531 81.6409 1.40076C81.6737 1.38847 82.2892 1.07329 82.066 1.23943C82.0664 1.23934 82.0667 1.23925 82.0671 1.23916ZM85.9033 2.52704C85.9247 2.54651 85.9488 2.57024 85.9768 2.60012C85.9522 2.57556 85.9276 2.55118 85.9033 2.52704ZM101.884 6.5879C101.793 6.41473 102.101 6.90303 102.201 7.09875C102.194 7.1081 101.898 6.61539 101.884 6.5879ZM85.6238 2.30303C85.241 1.88207 85.5447 2.17055 85.9033 2.52704C85.7845 2.41859 85.7523 2.44437 85.6238 2.30303ZM94.4082 10.1351C94.3914 10.1528 94.3778 10.1621 94.3683 10.1583C94.4131 10.1121 94.4211 10.1106 94.4082 10.1351ZM93.646 11.2223C93.4166 11.6157 93.9346 10.8501 93.913 10.8431C93.9044 10.8408 93.6551 11.2066 93.646 11.2223ZM88.4649 5.2358C88.4912 5.26816 87.9711 4.87105 88.6745 5.49701C88.3373 5.12642 88.7103 5.50098 88.7113 5.48917C88.7158 5.45666 88.1169 4.86517 87.9962 4.72282C87.8622 4.64902 88.3779 5.12892 88.4641 5.23502C88.4644 5.23528 88.4646 5.23554 88.4649 5.2358ZM76.1668 3.88851C76.2597 3.81723 76.5925 3.67536 76.8154 3.57585C76.7225 3.64715 76.3896 3.78896 76.1668 3.88851ZM27.038 7.61305C28.4822 8.45712 28.6291 8.63182 27.3316 7.82071C27.3062 7.80478 26.947 7.56719 27.038 7.61305ZM35.2076 5.24485C35.3013 5.37659 34.9062 5.03597 34.6594 4.79823C34.6545 4.79354 34.6486 4.78762 34.6421 4.78085L33.4394 3.69199L33.0606 5.28322C33.0313 5.37733 32.9542 5.57796 33.0129 5.28492C33.0171 5.287 33.0223 5.28366 33.0281 5.27572L33.42 3.62944L34.6643 4.75597C34.7005 4.83372 35.0164 5.12552 35.2076 5.24485ZM85.3795 2.09184C85.242 1.99409 84.9059 1.61019 84.7236 1.41286C84.8558 1.51323 85.2225 1.91336 85.3795 2.09184ZM31.7311 10.4723C31.8808 10.5653 31.9984 10.6014 31.9736 10.5836C31.8628 10.5038 31.5678 10.3545 31.7311 10.4723ZM86.5134 3.28446C86.5158 3.31443 86.0359 2.83904 86.0374 2.77263C86.1347 2.87929 86.5105 3.26413 86.5134 3.28446ZM76.5916 3.71095C76.691 3.67628 76.2037 3.91632 76.0503 3.97564C76.0541 3.95203 76.5265 3.73372 76.5916 3.71095ZM31.8985 10.4424C31.9352 10.2888 32.0212 9.90398 32.0185 9.85853C32.0151 9.80208 31.8955 10.3679 31.8985 10.4424ZM6.55362 14.041C6.53382 14.0447 7.1017 13.8176 7.35947 13.7323C7.84914 13.5709 6.57476 14.0362 6.55362 14.041ZM30.2928 9.62575C29.8805 9.34602 30.3404 9.65327 30.3369 9.6173C30.0502 9.44403 29.3363 9.01418 29.8128 9.33306C29.9056 9.39516 30.1599 9.54374 30.2928 9.62575ZM30.6814 9.87053C30.7321 9.88999 31.0554 10.0492 30.7883 9.89138C30.6648 9.81848 30.4493 9.72762 30.6814 9.87053ZM10.1171 12.7665C10.5433 12.6338 8.6127 13.3094 8.55636 13.3264C8.52658 13.3353 8.50693 13.3407 8.4956 13.3434C8.42655 13.3736 8.06274 13.5038 8.01628 13.5061C8.12581 13.4684 8.42344 13.3613 8.45852 13.3504C8.47364 13.3457 8.48497 13.3424 8.49282 13.3402C8.61749 13.2834 10.0354 12.7919 10.1171 12.7665ZM13.3168 11.6493C12.8446 11.8465 12.7443 11.8321 12.7853 11.816C13.3027 11.6114 12.9724 11.7659 12.989 11.7617C13.0265 11.7513 13.3933 11.6037 13.3153 11.6499C13.3158 11.6497 13.3163 11.6495 13.3168 11.6493ZM10.7741 12.5407C10.7545 12.5483 10.3502 12.6905 10.3333 12.6958C9.99753 12.7994 11.1416 12.3965 10.7741 12.5407ZM79.6295 2.41393C79.3463 2.53234 79.6066 2.37736 79.7973 2.30419C79.8131 2.29836 79.8793 2.3095 79.6295 2.41393ZM30.8948 9.9913C30.9536 10.0316 32.504 10.9847 32.4296 10.897C32.2951 10.8207 30.5316 9.73922 30.8948 9.9913ZM38.0074 7.78441C37.7669 7.57186 38.0548 7.77484 38.1738 7.89873C38.2178 7.94469 38.068 7.83798 38.0074 7.78441ZM87.1107 3.97286C87.3602 4.19542 87.2481 4.20718 87.0706 3.97722C87.0636 3.96819 87.101 3.96413 87.1107 3.97286ZM36.0991 6.07193C36.9444 6.78704 36.668 6.70309 35.6161 5.72056C35.6534 5.74641 35.6907 5.77226 35.7279 5.79811C35.5249 5.61497 35.3865 5.48993 35.2984 5.41C35.1009 5.2308 35.1562 5.27833 35.3018 5.40624C35.4856 5.56783 35.8135 5.85769 35.9578 5.98085C36.0754 6.08121 35.9914 5.98063 36.0984 6.07111C36.0986 6.07138 36.0988 6.07166 36.0991 6.07193ZM39.2716 8.90272C40.0129 9.67294 38.5249 8.2841 38.0797 7.90628C38.5276 8.25421 39.0767 8.74545 38.3495 8.05546C39.453 9.01914 38.9726 8.64155 39.0145 8.68236C39.0643 8.73057 39.24 8.86988 39.2716 8.90272ZM37.1626 7.04297C37.1148 7.00407 36.7782 6.68398 36.6509 6.57547C36.8456 6.70847 37.4807 7.30093 37.1626 7.04297ZM16.6606 10.4468C16.6295 10.475 16.5435 10.5181 16.1962 10.635C16.3003 10.5895 16.5186 10.5046 16.6606 10.4468ZM102.56 7.85951C102.689 8.0766 102.943 8.51113 102.878 8.36978C102.87 8.35448 102.569 7.85475 102.56 7.85951ZM32.2656 9.00426C32.2798 8.95244 32.5831 7.59809 32.4554 8.06058C32.4168 8.20005 32.1461 9.43354 32.2656 9.00426ZM29.2579 9.02434C29.3574 9.08429 29.7639 9.32398 29.7751 9.32507C29.8111 9.32741 29.3097 9.03711 29.2579 9.02434ZM103.203 8.96078C103.219 8.99007 103.618 9.65066 103.579 9.5742C103.508 9.42864 103.149 8.85985 103.203 8.96078ZM78.6404 2.93655C78.5821 2.96412 78.4917 2.97078 78.4712 2.97967C78.4233 3.00087 77.3542 3.49904 77.7481 3.27632C77.8137 3.23907 79.3654 2.55227 79.5681 2.46486C79.6635 2.46888 78.9865 2.73078 78.8277 2.80768C78.7997 2.82128 78.7964 2.8623 78.6408 2.93617C78.6406 2.93629 78.6405 2.93642 78.6404 2.93655ZM14.8671 11.1018C14.8229 11.1333 13.519 11.6057 13.5286 11.5839C13.9748 11.4233 14.421 11.2625 14.8671 11.1018ZM15.5316 10.8684C15.8139 10.7795 15.162 11.0145 14.968 11.0784C14.9628 11.0697 15.4905 10.8813 15.5316 10.8684ZM31.4736 10.4414C31.5955 10.5092 31.2435 10.2637 31.3285 10.3085C31.3829 10.3372 31.644 10.5069 31.7338 10.5505C31.7594 10.5626 31.5015 10.3758 31.4221 10.3295C31.3095 10.2636 31.4069 10.3468 31.2848 10.2735C30.8796 10.0301 30.5283 9.8014 30.1482 9.57344C30.1139 9.55288 30.3722 9.7253 30.0797 9.54924C30.0345 9.52204 29.7743 9.34021 29.4226 9.13274C28.6146 8.72514 28.0811 8.32865 27.0873 7.76013C27.1212 7.78745 27.8463 8.24198 27.8892 8.26852C28.7036 8.77022 30.1713 9.65481 31.0294 10.172C31.2496 10.3047 31.1502 10.2279 31.2454 10.2846C31.3205 10.3294 31.2173 10.2987 31.4736 10.4414ZM102.481 7.75113C102.525 7.86606 102.755 8.22008 102.893 8.45193C102.859 8.36037 102.613 7.97935 102.481 7.75113ZM21.4045 8.80381C21.5315 8.75786 21.9285 8.6248 21.9589 8.60659C21.998 8.58296 21.4263 8.77937 21.4045 8.80381ZM72.5811 5.67614C72.5696 5.68246 72.273 5.81516 72.2613 5.81918C71.9849 5.91232 72.8746 5.51437 72.5811 5.67614ZM65.5042 8.89075C65.2818 8.99702 65.0603 9.11037 64.973 9.11813C65.1177 9.05705 65.5221 8.86019 65.5042 8.89075ZM55.7497 13.3452C55.8109 13.3574 55.1267 13.6441 54.998 13.6994C55.0385 13.6631 55.7049 13.3368 55.7497 13.3452ZM16.7336 10.4956C16.3057 10.6456 16.4068 10.6456 16.1305 10.7271C16.0853 10.7403 15.9198 10.725 16.3979 10.5832C16.484 10.5578 16.1586 10.6906 16.7336 10.4956ZM35.441 5.56469C35.4041 5.54224 35.3446 5.49501 35.2751 5.43618C35.1561 5.33547 35.0078 5.2008 34.8932 5.09831C34.9297 5.11595 35.1265 5.28807 35.2837 5.4265C35.3468 5.48205 35.4035 5.53217 35.441 5.56469ZM103.907 10.1646C104.002 10.3565 104.517 11.1943 104.4 10.9798C104.384 10.9491 103.977 10.2832 103.907 10.1646ZM84.4945 1.34293C84.1936 1.07133 84.7658 1.68257 84.9695 1.85355C84.8854 1.76839 84.5147 1.36126 84.4945 1.34293ZM58.1007 12.2929C58.0835 12.302 57.6925 12.4777 57.6746 12.4845C57.3434 12.6046 58.4495 12.1072 58.1007 12.2929ZM67.8494 7.87351C67.7184 7.95883 66.7866 8.36241 66.57 8.43555C66.7552 8.31368 68.0117 7.76737 67.8494 7.87351ZM18.4893 9.86382C18.1846 9.97243 17.8939 10.0707 17.6119 10.1643C17.667 10.1324 18.4542 9.86676 18.4893 9.86382ZM56.6704 12.9489C56.6494 12.9583 56.6282 12.9657 56.6081 12.9746C56.6293 12.9658 56.6501 12.9573 56.6704 12.9489ZM25.319 7.46045C25.5764 7.37538 25.5154 7.37072 25.4994 7.37556C25.3045 7.43589 25.0277 7.55683 25.319 7.46045ZM102.615 8.0338C102.648 8.12463 102.897 8.50698 103.029 8.73419C103.001 8.66122 102.727 8.21354 102.615 8.0338ZM40.0904 9.69973C40.3259 9.94736 39.2644 9.05572 39.0583 8.84823C39.0541 8.82045 40.0557 9.66375 40.0904 9.69973ZM85.3255 2.28511C85.325 2.32314 85.7504 2.72139 85.674 2.62338C85.6257 2.56128 85.3262 2.26193 85.3255 2.28511ZM38.5442 8.37773C38.4424 8.29637 38.2288 8.07994 38.3173 8.14118C38.431 8.21978 38.5707 8.3986 38.5442 8.37773ZM31.7971 11.5331C31.8124 11.4781 31.9588 10.7263 31.8709 11.0306C31.81 11.2417 31.8298 11.2822 31.8187 11.3325C31.8128 11.3591 31.7431 11.638 31.7016 11.8157L32.9295 11.3021C32.795 11.2189 32.7259 11.1798 32.9214 11.3153L31.7166 11.8192C31.7359 11.7522 31.7623 11.6587 31.7971 11.5331ZM45.8957 14.8498C45.6735 14.6651 45.4183 14.4265 45.1913 14.2269C45.2928 14.2981 45.8159 14.7547 45.8957 14.8498ZM82.334 1.30392C82.3649 1.29527 82.7383 1.1307 83.0455 0.991612L83.7617 0.670315L84.3001 1.23628C84.5827 1.53132 84.7978 1.74705 84.3998 1.3049C84.3921 1.29635 84.3622 1.26405 84.3193 1.21798L83.768 0.638447L83.0346 0.967444C82.7749 1.08078 82.1643 1.3515 82.334 1.30392ZM16.7336 10.4956C16.7876 10.4767 16.85 10.4553 16.9226 10.4312C16.8508 10.456 16.7881 10.4771 16.7336 10.4956ZM21.5896 8.7811C21.495 8.82707 21.992 8.65507 22.1362 8.5974C22.1766 8.5676 21.6026 8.77475 21.5896 8.7811ZM45.159 14.2287C45.0222 14.1203 44.7919 13.9037 44.6296 13.7618C44.6669 13.7747 45.1128 14.1674 45.159 14.2287ZM54.5304 13.9952C54.2119 14.1301 53.8266 14.311 53.8287 14.3317C53.8209 14.3319 53.8043 14.3359 53.7776 14.3444C53.7507 14.3531 53.4175 14.5154 53.2683 14.5762C52.3753 14.9401 56.6437 13.0087 54.1966 14.1877C54.3079 14.1235 54.4191 14.0594 54.5304 13.9952ZM69.1203 7.34982C69.3096 7.29211 69.7967 7.03494 69.6626 7.08471C69.5693 7.11947 68.9307 7.40748 69.1203 7.34982ZM62.2524 10.4941C62.3077 10.4739 62.7888 10.2352 62.796 10.2174C62.5095 10.3327 62.0007 10.586 62.2524 10.4941ZM70.5063 6.7528C70.6201 6.7054 70.746 6.60213 70.732 6.60645C70.6118 6.64433 70.3084 6.81719 70.5063 6.7528ZM17.6404 10.2448C17.8155 10.1906 18.361 9.97951 18.4757 9.9215C18.499 9.91664 18.5605 9.89933 18.6725 9.86516C18.6722 9.86528 18.6718 9.8654 18.6715 9.86552C18.8226 9.81911 23.2799 8.257 20.2812 9.27859C20.1873 9.3106 20.32 9.28002 19.9384 9.4117C19.9132 9.42038 19.8967 9.41303 19.8188 9.43986C19.6396 9.50165 18.685 9.83056 18.4968 9.90734C18.4944 9.9058 18.4814 9.90815 18.4545 9.91558C18.2142 9.98217 17.5045 10.2871 17.6404 10.2448ZM61.2856 10.9388C61.3868 10.9006 61.6951 10.7525 61.7203 10.7221C61.5625 10.7847 61.0506 11.0275 61.2856 10.9388ZM82.4191 1.34843C82.6258 1.27155 83.1224 1.01591 82.9626 1.07161C82.8646 1.10573 82.1807 1.43717 82.4191 1.34843ZM64.3982 9.51004C63.2414 10.0145 64.1248 9.63643 63.9594 9.73986C64.1057 9.66327 64.2519 9.58666 64.3982 9.51004ZM12.1205 12.1531C12.3112 12.089 12.0968 12.1931 11.8832 12.2531C11.8162 12.2719 12.0138 12.189 12.1205 12.1531ZM3.5536 15.1832C3.72179 15.1443 2.92684 15.4119 3.23107 15.2912C3.24526 15.2857 3.54177 15.1865 3.5536 15.1832ZM9.54498 13.0808C9.66889 13.021 9.75215 12.9896 10.1162 12.8651C9.58048 13.0588 10.083 12.8958 9.54498 13.0808ZM53.8334 14.333C53.8309 14.3328 53.8288 14.3328 53.8287 14.3317C53.8314 14.3316 53.8328 14.3321 53.8334 14.333ZM71.5831 6.25442C71.7378 6.2133 72.1401 6.02839 72.009 6.05852C71.9964 6.06152 71.634 6.20973 71.5831 6.25442ZM18.4757 9.9215C18.4549 9.92581 18.4644 9.92053 18.4968 9.90734C18.499 9.9088 18.4911 9.91368 18.4757 9.9215ZM69.4279 7.25787C69.4342 7.23337 68.8177 7.50541 68.794 7.51872C68.456 7.70986 69.1751 7.37411 69.4279 7.25787ZM86.8139 4.0037C86.8395 4.02736 86.7228 3.8289 86.6129 3.74383C86.5278 3.67799 86.7182 3.9152 86.8139 4.0037ZM8.31462 13.521C8.11337 13.592 7.82999 13.6918 7.77411 13.6995C7.90952 13.6536 8.31608 13.5116 8.31462 13.521ZM3.86787 15.0874C4.10195 14.9924 4.64531 14.801 4.99291 14.6807C5.00455 14.6939 4.08996 15.0053 3.86787 15.0874ZM17.0918 10.4295C17.1086 10.4245 17.6154 10.2528 17.5417 10.2632C17.4341 10.2784 16.9469 10.4723 17.0918 10.4295ZM86.1163 3.23321C85.938 3.07259 86.2788 3.50854 86.4839 3.66178C86.5892 3.7405 86.1463 3.26029 86.1163 3.23321ZM72.856 5.71442C73.1375 5.57049 72.4143 5.8704 72.3256 5.93969C72.4589 5.88146 72.756 5.76552 72.856 5.71442ZM63.0871 10.1863C64.0229 9.84095 63.4745 9.94322 63.3188 10.0272C63.2968 10.039 63.0642 10.1948 63.0871 10.1863ZM105.126 12.3192C105.201 12.4382 104.942 11.9796 104.9 11.9264C104.873 11.8937 105.077 12.2433 105.126 12.3192ZM49.436 16.3626C49.4741 16.3449 49.512 16.3274 49.5494 16.3101C49.5217 16.3239 49.4849 16.3412 49.436 16.3626ZM75.5083 4.62357C74.8258 4.81398 74.9272 4.85983 74.8716 4.88452C74.7513 4.93778 74.4609 5.03738 74.2372 5.14418C74.4907 5.01578 74.7442 4.88738 74.9977 4.75896C74.7902 4.84437 73 5.6135 72.97 5.6464C72.927 5.69324 73.482 5.43269 73.4991 5.42731C73.5238 5.41952 73.6395 5.44309 73.6924 5.422C73.7793 5.38715 75.2634 4.71554 75.5083 4.62357ZM64.9761 9.3135C64.8272 9.37252 64.7749 9.36716 64.7099 9.40375C64.6877 9.41622 64.6944 9.441 64.6184 9.48279C64.7376 9.42636 64.8569 9.36993 64.9761 9.3135ZM76.6105 4.01658C76.8043 3.96411 75.9896 4.32006 75.9622 4.32856C75.8147 4.37148 76.4521 4.05947 76.6105 4.01658ZM69.7435 7.13953C69.7738 7.12777 70.3994 6.8543 70.3872 6.84057C70.2172 6.90308 69.3847 7.27733 69.7435 7.13953ZM64.5219 9.52861C64.3024 9.62528 63.8793 9.79003 63.9422 9.80312C63.9426 9.80297 63.9429 9.80282 63.9432 9.80268C64.1361 9.71132 64.329 9.61997 64.5219 9.52861ZM85.4886 2.69998C85.7493 3.06561 85.6625 2.85735 85.4055 2.5586C85.3023 2.49233 85.4458 2.6401 85.4886 2.69998ZM86.4368 3.76133C86.5139 3.85869 87.4034 4.77136 87.2937 4.60727C87.2547 4.54892 86.7264 4.04019 86.7048 4.01418C86.6719 3.97477 86.8606 4.11778 86.5853 3.84037C86.5918 3.8657 86.4104 3.72804 86.4368 3.76133ZM85.7131 2.9943C85.983 3.34733 86.1167 3.35685 85.8874 3.11656C85.7978 3.02262 85.6747 2.94388 85.7131 2.9943ZM84.4718 1.68498C84.5755 1.80574 84.859 2.12028 85.0824 2.31051C84.8143 2.02651 84.5463 1.74254 84.2782 1.4586C84.2348 1.43776 84.3811 1.57932 84.4725 1.68576C84.4723 1.6855 84.472 1.68524 84.4718 1.68498ZM1.39182 16.0504C1.72639 15.9442 0.964008 16.2136 0.930939 16.2226C0.832532 16.2486 1.24227 16.098 1.39182 16.0504ZM106.393 14.7693C106.444 14.8521 106.474 14.9091 106.594 15.0868C106.48 14.9035 106.366 14.7199 106.253 14.5358C106.151 14.4022 106.336 14.6787 106.393 14.7693ZM106.815 15.4787C106.798 15.4535 106.878 15.6 106.667 15.2673C106.526 15.0415 107.333 16.2435 107.474 16.4633C107.312 16.2243 106.962 15.6961 106.815 15.4787ZM108.215 17.5928C108.225 17.6066 107.908 17.1562 107.872 17.1039C107.682 16.8288 108.164 17.5182 108.215 17.5928ZM107.211 16.1531C107.357 16.3659 107.029 15.898 106.933 15.7576C106.925 15.7426 107.189 16.1203 107.211 16.1531ZM4.91676 15.3774C5.18945 15.3123 5.40898 15.1824 5.00523 15.329C4.98596 15.336 4.90509 15.38 4.91676 15.3774ZM107.903 17.1549C107.755 16.9435 108.084 17.4104 108.182 17.5498C108.191 17.563 107.925 17.1871 107.903 17.1549ZM5.12211 15.3709C5.47961 15.2708 5.33635 15.255 5.29165 15.2674C5.10761 15.3189 4.49459 15.5484 4.3696 15.596C5.29568 15.2776 4.95382 15.4181 5.12211 15.3709ZM6.73233 14.7956C7.05636 14.6803 6.21871 14.9468 6.06514 15.0162C6.227 14.9613 6.64017 14.8283 6.73233 14.7956ZM8.71906 14.1549C8.89525 14.0987 9.4189 13.9304 9.50304 13.8913C9.31211 13.9569 8.78967 14.1202 8.71906 14.1549ZM9.12631 14.0522C9.4052 13.9746 9.4576 13.9134 9.14535 14.0303C9.13322 14.0348 9.11598 14.0548 9.12631 14.0522ZM10.6733 13.5547C10.8588 13.5113 11.0508 13.4035 10.7588 13.4994C10.6721 13.5279 10.6536 13.5592 10.6733 13.5547ZM5.58334 15.286C5.84321 15.2069 6.16677 15.0718 5.6156 15.2516C5.80759 15.1837 5.99955 15.1157 6.19149 15.0477C5.46609 15.273 5.53068 15.2899 5.32323 15.357C5.03336 15.4508 5.04668 15.4154 5.10173 15.3873C4.87054 15.4833 3.86344 15.818 3.28246 16.0146C3.79632 15.8514 4.63074 15.5882 5.13729 15.4255C5.28192 15.3791 5.4192 15.325 5.54242 15.2851C5.73999 15.2212 5.56875 15.2904 5.58233 15.2864C5.58267 15.2863 5.583 15.2862 5.58334 15.286ZM12.7008 12.883C13.2364 12.7269 12.8877 12.7961 12.5914 12.9028C12.5788 12.9076 12.6875 12.8869 12.7008 12.883ZM108.326 17.7611C107.887 17.1587 108.21 17.5938 107.289 16.3357C107.678 16.8629 107.314 16.3628 107.39 16.4651C107.452 16.5473 107.675 16.8598 107.547 16.6769C107.716 16.9172 108.463 17.9494 108.497 17.9954C108.496 17.995 108.496 17.9946 108.496 17.9941C108.516 18.0217 108.466 17.9531 108.326 17.7611ZM8.75507 14.2525C8.94717 14.2401 8.99161 14.1443 9.35161 14.068C9.79465 13.8596 8.07533 14.4892 7.84941 14.5132C9.73822 13.893 6.58741 14.8814 7.92769 14.5128C6.83405 14.8474 7.57487 14.6388 7.41025 14.7028C7.23408 14.771 6.61675 14.964 6.6534 14.9698C6.65374 14.9697 6.65408 14.9696 6.65442 14.9695C7.02962 14.8445 7.40482 14.7194 7.78001 14.5944C7.40029 14.6801 8.17121 14.4369 8.44168 14.3807C8.54616 14.3381 8.65063 14.2953 8.75507 14.2525ZM6.61856 14.9221C6.65583 14.9106 7.47072 14.6351 7.41556 14.6454C7.30499 14.677 6.14806 15.0669 6.61856 14.9221ZM3.02758 16.1208C3.32074 16.0236 3.77621 15.8797 3.93179 15.8145C3.63855 15.9116 3.18312 16.0559 3.02758 16.1208ZM18.1272 11.126C18.4962 10.9882 17.3441 11.365 17.6826 11.2713C17.6992 11.2667 18.1091 11.1327 18.1272 11.126ZM9.60298 13.9647C9.98793 13.8534 9.79278 13.8671 9.51531 13.9722C9.49925 13.9783 9.5852 13.9698 9.60298 13.9647ZM107.969 17.2735C107.952 17.2527 107.315 16.3788 107.203 16.2236C107.27 16.31 107.988 17.2978 107.969 17.2735ZM2.52344 16.3267C3.11834 16.1673 3.897 15.8668 3.98402 15.8387C4.07065 15.8111 3.94038 15.8709 3.9602 15.8648C4.00536 15.8509 4.92459 15.546 4.96874 15.5302C5.00029 15.5189 4.82652 15.5521 5.01395 15.4824C4.64795 15.6172 2.96443 16.1657 2.87808 16.197C2.81111 16.2212 3.32787 16.0744 2.52445 16.3263C2.52411 16.3264 2.52378 16.3265 2.52344 16.3267ZM4.20259 15.7716C3.96984 15.8386 4.61362 15.6244 4.77064 15.5763C5.11961 15.4693 4.23243 15.7629 4.20259 15.7716ZM5.75498 15.2683C5.82927 15.2461 6.494 15.0291 6.54685 14.9998C6.22789 15.0899 5.58644 15.3186 5.75498 15.2683ZM13.1444 12.8309C13.3164 12.7725 13.794 12.6259 13.8175 12.6059C13.6453 12.6644 13.1678 12.8111 13.1444 12.8309ZM105.761 14.3158C105.937 14.5612 105.519 13.9996 105.4 13.834C105.397 13.8227 105.746 14.2949 105.761 14.3158ZM9.69998 14.0393C9.80319 14.0089 11.8853 13.318 12.176 13.2171C11.8872 13.3027 9.82128 13.9801 9.7288 14.0146C9.70181 14.0247 9.68679 14.0431 9.69998 14.0393ZM5.19333 15.5223C5.00669 15.5982 4.87663 15.6234 4.85247 15.6311C4.61547 15.7068 4.1264 15.8707 4.22966 15.823C4.64834 15.6909 5.56484 15.3712 5.19333 15.5223ZM13.3173 12.855C14.0231 12.617 12.6578 13.0458 12.8418 13.004C12.8536 13.0013 13.2443 12.8796 13.3173 12.855ZM9.46853 14.1199C9.3164 14.1829 7.22758 14.856 6.89291 14.966C7.18577 14.8471 7.43269 14.7833 7.83511 14.6502C7.94367 14.6143 7.91168 14.615 7.92335 14.6112C8.11139 14.549 7.97399 14.6054 8.09008 14.5675C8.16343 14.5436 9.68256 14.0312 9.46853 14.1199ZM5.08735 15.5673C4.97334 15.613 3.67242 16.0431 3.61938 16.0584C3.22273 16.1727 4.98525 15.5977 5.08735 15.5673ZM9.66649 14.0768C9.45088 14.1756 8.40919 14.4973 9.11388 14.2529C9.18119 14.2296 9.47161 14.1468 9.66649 14.0768ZM13.2507 12.9063C13.2858 12.8957 14.0259 12.6601 14.0361 12.6468C13.9282 12.6781 12.8512 13.0269 13.2507 12.9063ZM12.8781 13.0611C12.8958 13.055 12.717 13.0946 13.0639 12.9838C13.0928 12.9745 13.1531 12.9761 13.5859 12.8272C13.6737 12.7969 13.8061 12.7394 13.796 12.7418C13.3327 12.8598 11.9875 13.3626 12.8781 13.0611ZM5.06782 15.5878C5.14025 15.5714 4.97766 15.6464 4.82164 15.6865C4.75477 15.7036 4.87286 15.6519 5.06782 15.5878ZM15.5944 12.1493C15.1704 12.3047 16.5188 11.868 16.5861 11.8416C16.5395 11.8459 15.6368 12.1338 15.5944 12.1493ZM105.287 13.7827C105.287 13.7829 105.288 13.7832 105.288 13.7835C105.06 13.4786 105.208 13.6627 105.198 13.6484C104.721 12.9941 104.836 13.1756 104.758 13.0756C104.59 12.861 104.636 12.8832 104.354 12.5215C104.819 13.1203 104.401 12.5713 104.396 12.5491C104.374 12.4619 104.984 13.367 105.218 13.6645C105.25 13.7063 105.025 13.3899 105.108 13.4963C105.375 13.8446 106.161 14.9516 105.287 13.7827ZM4.70449 15.7267C4.54097 15.7929 3.2671 16.1975 3.60073 16.0782C3.65437 16.0589 4.94483 15.6293 4.70449 15.7267ZM54.5371 16.1892C54.2529 16.3404 54.9442 16.0628 55.0631 15.9905C55.122 15.9546 54.6619 16.1228 54.5371 16.1892ZM59.3473 14.1609C59.6942 14.0017 60.0216 13.7491 59.594 13.9558C59.5486 13.9778 59.3018 14.1663 59.3473 14.1609ZM37.5574 9.97116C37.8329 10.261 37.8529 10.203 37.6352 10.0075C37.5584 9.93846 37.5488 9.96203 37.5574 9.97116ZM50.3204 18.1051C50.3577 18.0909 50.7772 17.9005 50.756 17.8943C50.5969 17.9557 50.0786 18.1963 50.3204 18.1051ZM37.4582 9.89229C37.6403 10.0431 37.3656 9.74019 37.1249 9.57617C37.2359 9.67207 37.4395 9.87675 37.4582 9.89229ZM10.4731 13.8915C10.6568 13.8171 11.1905 13.6479 11.4955 13.5461C11.5344 13.5528 10.6905 13.8173 10.4731 13.8915ZM57.8507 14.7828C58.1709 14.6142 57.4555 14.9105 57.5334 14.9107C57.5432 14.9082 57.8381 14.7896 57.8507 14.7828ZM31.5646 12.4627C31.7954 12.5887 31.1008 12.1264 31.2803 12.2727C31.2892 12.2797 31.5519 12.4558 31.5646 12.4627ZM28.4883 10.5144C28.6541 10.6251 29.3737 11.0768 29.1019 10.8875C29.0597 10.8582 28.5084 10.5103 28.4883 10.5144ZM104.737 13.0625C104.791 13.1552 104.418 12.6553 104.366 12.5825C104.346 12.5537 104.666 12.9412 104.737 13.0625ZM39.4744 11.7101C39.6299 11.8454 40.0217 12.2096 40.1026 12.2604C39.9132 12.0938 39.4458 11.6403 39.4744 11.7101ZM56.3453 15.4516C56.6484 15.3584 57.1382 15.137 56.9963 15.1456C56.455 15.3897 57.0817 15.1565 56.3453 15.4516ZM36.4492 9.0285C36.5702 9.14129 36.6919 9.1952 36.6794 9.18122C36.5588 9.04721 36.3381 8.90629 36.4492 9.0285ZM45.6769 17.3228C45.6713 17.3435 46.0702 17.6924 46.026 17.6358C46.0115 17.6171 45.6815 17.3061 45.6769 17.3228ZM17.0774 11.7524C17.3122 11.6882 16.6102 11.9277 16.3973 11.9829C16.2898 11.998 17.0478 11.7606 17.0774 11.7524ZM34.8458 6.11395C34.8566 6.1306 34.9169 5.88466 34.9511 5.71949L33.3499 6.22812C33.451 6.31431 33.5159 6.36216 33.4155 6.2587C33.4053 6.24818 33.3876 6.23139 33.3653 6.21091L34.9286 5.7143C34.8955 5.84914 34.8406 6.10547 34.8458 6.11395ZM30.5964 11.9108C31.0814 12.1829 29.1175 10.9219 29.6181 11.2785C29.6538 11.304 30.5542 11.887 30.5964 11.9108ZM27.3826 9.86193C27.4621 9.91569 27.3818 9.95498 27.0619 9.71777C27.0199 9.68671 27.2363 9.79992 27.2027 9.77324C27.1829 9.75762 26.4593 9.28746 26.4248 9.2677C26.3876 9.24654 26.4176 9.29388 26.3795 9.27298C26.3367 9.24937 25.899 8.94741 25.664 8.79845C25.6236 8.77279 25.5863 8.74936 25.552 8.72796L26.2751 8.80926C25.8938 8.93632 25.8511 8.96712 25.814 8.97926C25.695 9.01811 25.4904 9.07015 25.249 9.14872C24.0325 9.54513 22.176 10.1635 21.199 10.4404C22.0624 10.1762 22.8752 9.8949 23.7275 9.61182C23.4901 9.73064 24.9741 9.17387 24.1076 9.50405C24.3102 9.43293 25.2981 9.10661 26.2679 8.78797L25.5638 8.70881C26.4168 9.24595 27.2526 9.7743 27.3817 9.86136C27.382 9.86155 27.3823 9.86174 27.3826 9.86193ZM60.7359 13.5759C60.5361 13.7033 61.6323 13.208 61.7087 13.129C61.5612 13.1883 60.7608 13.5605 60.7359 13.5759ZM55.6976 15.9039C55.5978 15.9546 55.5285 16.0588 54.9788 16.2649C54.9783 16.2652 54.9778 16.2654 54.9774 16.2656C54.8166 16.3259 54.9884 16.232 54.9573 16.2394C54.9459 16.2418 54.4438 16.4279 54.8472 16.2432C55.4624 15.9616 54.926 16.2629 55.2561 16.1174C55.2965 16.0996 55.9058 15.7898 55.8662 15.7986C55.8621 15.7994 55.6774 15.8897 55.645 15.9004C55.5227 15.9409 55.5711 15.8965 55.5542 15.9029C55.4991 15.9246 54.5266 16.3947 54.3703 16.4299C54.3196 16.4416 55.9302 15.7019 55.9954 15.6786C56.0367 15.6639 56.0439 15.7247 56.0876 15.7116C56.1101 15.7048 56.7528 15.3959 56.8396 15.3633C56.8648 15.3538 56.8843 15.347 56.8986 15.3422C56.7926 15.3694 57.3833 15.1088 57.3736 15.1356C57.3667 15.1475 56.9585 15.3233 56.9434 15.3285C56.9368 15.3308 56.9309 15.3325 56.9255 15.3343C57.0187 15.3172 55.6429 15.9258 55.9533 15.8241C55.5619 16.0171 55.9901 15.7552 55.6976 15.9039ZM53.7955 16.7854C53.8341 16.7616 53.8728 16.7379 53.9115 16.7141C53.2195 17.0367 52.4019 17.3668 51.5977 17.7231C51.3937 17.8134 51.6435 17.7429 51.3719 17.8522C51.1543 17.9397 50.9032 18.0138 51.0166 17.9553C51.0442 17.941 51.4896 17.768 51.707 17.6692C52.3489 17.3777 52.1731 17.421 52.2104 17.4035C52.2517 17.3843 52.6665 17.2248 52.8876 17.1258C53.4436 16.8768 53.69 16.7462 54.4616 16.4323C54.031 16.6461 54.2904 16.5812 53.7955 16.7854ZM34.1065 9.53429C34.1161 9.56629 33.9846 10.0487 33.9445 10.2257C33.9349 10.1942 34.0664 9.71144 34.1065 9.53429ZM91.3928 12.2135C91.526 12.2985 90.7276 11.4705 90.918 11.7078C90.96 11.7604 91.2916 12.1102 91.3928 12.2135ZM87.8101 8.49015C87.6961 8.38622 88.1059 8.85154 88.1259 8.8309C88.1318 8.82395 87.8247 8.50357 87.8101 8.49015ZM44.1695 16.1547C44.1473 16.1358 43.8381 15.8466 43.8293 15.8365C43.6434 15.6238 44.6635 16.5729 44.1695 16.1547ZM83.4414 3.97649C83.8287 4.3482 82.7233 3.1718 83.0411 3.55036C83.0569 3.5692 83.4228 3.95863 83.4414 3.97649ZM83.3005 3.63679C83.4173 3.58301 83.9431 3.36029 83.9453 3.34695C83.9483 3.32574 83.347 3.58192 83.3005 3.63679ZM36.2931 9.03585C36.3171 9.10194 35.7756 8.5781 35.5788 8.40553C35.5545 8.33944 36.0964 8.86333 36.2931 9.03585ZM39.7989 12.2438C37.4291 10.1328 37.9952 10.5492 39.95 12.3584C39.9383 12.3771 39.9484 12.377 39.7989 12.2438ZM36.7893 9.51266C36.8889 9.57431 37.1519 9.82086 37.3312 9.98558C37.289 9.9672 36.922 9.62772 36.7893 9.51266ZM92.3146 13.2269C92.151 13.1079 91.5608 12.4528 91.6806 12.5551C91.7081 12.5792 92.3786 13.2669 92.3146 13.2269ZM43.9524 15.9985C43.9845 16.0735 43.2875 15.4233 43.2385 15.3687C43.0406 15.1487 43.8902 15.9523 43.9524 15.9985ZM34.9795 6.17658C34.9641 6.34573 34.8406 6.80776 34.7686 7.10663C34.7812 6.96587 34.9184 6.43019 34.9795 6.17658ZM34.5674 7.53726C34.5525 7.52501 34.2362 7.23555 34.2227 7.22183C33.9783 6.96812 34.8733 7.78675 34.5674 7.53726ZM105.54 14.2466C105.531 14.2355 105.332 13.9783 105.325 13.9691C105.154 13.7351 105.752 14.5076 105.54 14.2466Z" fill="#2E1A0E"/>
</svg>
